<?xml version="1.0" encoding="UTF-8" standalone="no"?>
<!DOCTYPE svg PUBLIC "-//W3C//DTD SVG 1.1//EN"
 "http://www.w3.org/Graphics/SVG/1.1/DTD/svg11.dtd">
<!-- Generated by graphviz version 13.1.2 (20250808.2320)
 -->
<!-- Title: AdaptivePolicy Pages: 1 -->
<svg width="970pt" height="876pt"
 viewBox="0.00 0.00 970.00 876.00" xmlns="http://www.w3.org/2000/svg" xmlns:xlink="http://www.w3.org/1999/xlink">
<g id="graph0" class="graph" transform="scale(1 1) rotate(0) translate(4 872.05)">
<title>AdaptivePolicy</title>
<polygon fill="white" stroke="none" points="-4,4 -4,-872.05 966.08,-872.05 966.08,4 -4,4"/>
<text xml:space="preserve" text-anchor="middle" x="481.04" y="-848.85" font-family="Helvetica,sans-Serif" font-size="16.00">Adaptive Policy: asym&#45;manuel &#160;(E[cost]=7.1250)</text>
<!-- n0 -->
<g id="node1" class="node">
<title>n0</title>
<ellipse fill="#d4e6f1" stroke="#2980b9" stroke-width="1.5" cx="466.75" cy="-814.03" rx="55.33" ry="29.52"/>
<text xml:space="preserve" text-anchor="middle" x="466.75" y="-821.41" font-family="Helvetica,sans-Serif" font-size="10.00">pos=depot</text>
<text xml:space="preserve" text-anchor="middle" x="466.75" y="-810.16" font-family="Helvetica,sans-Serif" font-size="10.00">Probe 2 &#160;(p=1)</text>
<text xml:space="preserve" text-anchor="middle" x="466.75" y="-798.91" font-family="Helvetica,sans-Serif" font-size="10.00">E[cost]=7.12</text>
</g>
<!-- n1 -->
<g id="node2" class="node">
<title>n1</title>
<ellipse fill="#fff3cd" stroke="#cc9900" stroke-width="1.5" cx="466.75" cy="-699.49" rx="61.16" ry="29.52"/>
<text xml:space="preserve" text-anchor="middle" x="466.75" y="-706.86" font-family="Helvetica,sans-Serif" font-size="10.00">pos=2</text>
<text xml:space="preserve" text-anchor="middle" x="466.75" y="-695.61" font-family="Helvetica,sans-Serif" font-size="10.00">Probe 3 &#160;(p=0.5)</text>
<text xml:space="preserve" text-anchor="middle" x="466.75" y="-684.36" font-family="Helvetica,sans-Serif" font-size="10.00">E[cost]=6.12</text>
</g>
<!-- n0&#45;&gt;n1 -->
<g id="edge28" class="edge">
<title>n0&#45;&gt;n1</title>
<path fill="none" stroke="#27ae60" stroke-width="1.5" d="M466.75,-784.05C466.75,-771.05 466.75,-755.49 466.75,-741.35"/>
<polygon fill="#27ae60" stroke="#27ae60" stroke-width="1.5" points="470.25,-741.64 466.75,-731.64 463.25,-741.64 470.25,-741.64"/>
<text xml:space="preserve" text-anchor="middle" x="490.75" y="-757.96" font-family="Helvetica,sans-Serif" font-size="9.00" fill="#27ae60">active (p=1)</text>
<text xml:space="preserve" text-anchor="middle" x="490.75" y="-748.21" font-family="Helvetica,sans-Serif" font-size="9.00" fill="#27ae60">travel=1</text>
</g>
<!-- n2 -->
<g id="node3" class="node">
<title>n2</title>
<ellipse fill="#d4e6f1" stroke="#2980b9" stroke-width="1.5" cx="402.75" cy="-584.95" rx="55.33" ry="29.52"/>
<text xml:space="preserve" text-anchor="middle" x="402.75" y="-592.32" font-family="Helvetica,sans-Serif" font-size="10.00">pos=3</text>
<text xml:space="preserve" text-anchor="middle" x="402.75" y="-581.07" font-family="Helvetica,sans-Serif" font-size="10.00">Probe 1 &#160;(p=1)</text>
<text xml:space="preserve" text-anchor="middle" x="402.75" y="-569.82" font-family="Helvetica,sans-Serif" font-size="10.00">E[cost]=5.75</text>
</g>
<!-- n1&#45;&gt;n2 -->
<g id="edge12" class="edge">
<title>n1&#45;&gt;n2</title>
<path fill="none" stroke="#27ae60" stroke-width="1.5" d="M450.77,-670.38C442.84,-656.44 433.15,-639.4 424.55,-624.29"/>
<polygon fill="#27ae60" stroke="#27ae60" stroke-width="1.5" points="427.64,-622.63 419.65,-615.67 421.55,-626.09 427.64,-622.63"/>
<text xml:space="preserve" text-anchor="middle" x="466.33" y="-643.42" font-family="Helvetica,sans-Serif" font-size="9.00" fill="#27ae60">active (p=0.5)</text>
<text xml:space="preserve" text-anchor="middle" x="466.33" y="-633.67" font-family="Helvetica,sans-Serif" font-size="9.00" fill="#27ae60">travel=1</text>
</g>
<!-- n14 -->
<g id="node15" class="node">
<title>n14</title>
<ellipse fill="#d4e6f1" stroke="#2980b9" stroke-width="1.5" cx="532.75" cy="-584.95" rx="55.33" ry="29.52"/>
<text xml:space="preserve" text-anchor="middle" x="532.75" y="-592.32" font-family="Helvetica,sans-Serif" font-size="10.00">pos=2</text>
<text xml:space="preserve" text-anchor="middle" x="532.75" y="-581.07" font-family="Helvetica,sans-Serif" font-size="10.00">Probe 5 &#160;(p=1)</text>
<text xml:space="preserve" text-anchor="middle" x="532.75" y="-569.82" font-family="Helvetica,sans-Serif" font-size="10.00">E[cost]=5.50</text>
</g>
<!-- n1&#45;&gt;n14 -->
<g id="edge27" class="edge">
<title>n1&#45;&gt;n14</title>
<path fill="none" stroke="#c0392b" stroke-width="1.5" stroke-dasharray="5,2" d="M485.17,-670.65C489.08,-664.55 493.12,-658.08 496.75,-651.97 501.96,-643.19 507.35,-633.61 512.32,-624.55"/>
<polygon fill="#c0392b" stroke="#c0392b" stroke-width="1.5" points="515.36,-626.28 517.05,-615.82 509.21,-622.94 515.36,-626.28"/>
<text xml:space="preserve" text-anchor="middle" x="538.55" y="-638.54" font-family="Helvetica,sans-Serif" font-size="9.00" fill="#c0392b">inactive (p=0.5)</text>
</g>
<!-- n3 -->
<g id="node4" class="node">
<title>n3</title>
<ellipse fill="#d4e6f1" stroke="#2980b9" stroke-width="1.5" cx="399.75" cy="-470.4" rx="55.33" ry="29.52"/>
<text xml:space="preserve" text-anchor="middle" x="399.75" y="-477.78" font-family="Helvetica,sans-Serif" font-size="10.00">pos=1</text>
<text xml:space="preserve" text-anchor="middle" x="399.75" y="-466.53" font-family="Helvetica,sans-Serif" font-size="10.00">Probe 5 &#160;(p=1)</text>
<text xml:space="preserve" text-anchor="middle" x="399.75" y="-455.28" font-family="Helvetica,sans-Serif" font-size="10.00">E[cost]=4.75</text>
</g>
<!-- n2&#45;&gt;n3 -->
<g id="edge11" class="edge">
<title>n2&#45;&gt;n3</title>
<path fill="none" stroke="#27ae60" stroke-width="1.5" d="M401.98,-554.96C401.63,-541.97 401.22,-526.41 400.84,-512.26"/>
<polygon fill="#27ae60" stroke="#27ae60" stroke-width="1.5" points="404.35,-512.46 400.58,-502.56 397.35,-512.65 404.35,-512.46"/>
<text xml:space="preserve" text-anchor="middle" x="425.43" y="-528.87" font-family="Helvetica,sans-Serif" font-size="9.00" fill="#27ae60">active (p=1)</text>
<text xml:space="preserve" text-anchor="middle" x="425.43" y="-519.12" font-family="Helvetica,sans-Serif" font-size="9.00" fill="#27ae60">travel=1</text>
</g>
<!-- n4 -->
<g id="node5" class="node">
<title>n4</title>
<ellipse fill="#fff3cd" stroke="#cc9900" stroke-width="1.5" cx="380.75" cy="-355.86" rx="61.16" ry="29.52"/>
<text xml:space="preserve" text-anchor="middle" x="380.75" y="-363.23" font-family="Helvetica,sans-Serif" font-size="10.00">pos=5</text>
<text xml:space="preserve" text-anchor="middle" x="380.75" y="-351.98" font-family="Helvetica,sans-Serif" font-size="10.00">Probe 6 &#160;(p=0.5)</text>
<text xml:space="preserve" text-anchor="middle" x="380.75" y="-340.73" font-family="Helvetica,sans-Serif" font-size="10.00">E[cost]=3.75</text>
</g>
<!-- n3&#45;&gt;n4 -->
<g id="edge10" class="edge">
<title>n3&#45;&gt;n4</title>
<path fill="none" stroke="#27ae60" stroke-width="1.5" d="M394.86,-440.42C392.66,-427.42 390.04,-411.86 387.65,-397.71"/>
<polygon fill="#27ae60" stroke="#27ae60" stroke-width="1.5" points="391.12,-397.26 386,-387.98 384.22,-398.42 391.12,-397.26"/>
<text xml:space="preserve" text-anchor="middle" x="415.39" y="-414.33" font-family="Helvetica,sans-Serif" font-size="9.00" fill="#27ae60">active (p=1)</text>
<text xml:space="preserve" text-anchor="middle" x="415.39" y="-404.58" font-family="Helvetica,sans-Serif" font-size="9.00" fill="#27ae60">travel=1</text>
</g>
<!-- n5 -->
<g id="node6" class="node">
<title>n5</title>
<ellipse fill="#d4e6f1" stroke="#2980b9" stroke-width="1.5" cx="219.75" cy="-241.32" rx="55.33" ry="29.52"/>
<text xml:space="preserve" text-anchor="middle" x="219.75" y="-248.69" font-family="Helvetica,sans-Serif" font-size="10.00">pos=6</text>
<text xml:space="preserve" text-anchor="middle" x="219.75" y="-237.44" font-family="Helvetica,sans-Serif" font-size="10.00">Probe 4 &#160;(p=1)</text>
<text xml:space="preserve" text-anchor="middle" x="219.75" y="-226.19" font-family="Helvetica,sans-Serif" font-size="10.00">E[cost]=3</text>
</g>
<!-- n4&#45;&gt;n5 -->
<g id="edge4" class="edge">
<title>n4&#45;&gt;n5</title>
<path fill="none" stroke="#27ae60" stroke-width="1.5" d="M346.61,-330.99C322.24,-313.96 289.28,-290.92 263.07,-272.59"/>
<polygon fill="#27ae60" stroke="#27ae60" stroke-width="1.5" points="265.08,-269.73 254.88,-266.87 261.07,-275.47 265.08,-269.73"/>
<text xml:space="preserve" text-anchor="middle" x="337.64" y="-299.79" font-family="Helvetica,sans-Serif" font-size="9.00" fill="#27ae60">active (p=0.5)</text>
<text xml:space="preserve" text-anchor="middle" x="337.64" y="-290.04" font-family="Helvetica,sans-Serif" font-size="9.00" fill="#27ae60">travel=1</text>
</g>
<!-- n9 -->
<g id="node10" class="node">
<title>n9</title>
<ellipse fill="#fff3cd" stroke="#cc9900" stroke-width="1.5" cx="380.75" cy="-241.32" rx="61.16" ry="29.52"/>
<text xml:space="preserve" text-anchor="middle" x="380.75" y="-248.69" font-family="Helvetica,sans-Serif" font-size="10.00">pos=5</text>
<text xml:space="preserve" text-anchor="middle" x="380.75" y="-237.44" font-family="Helvetica,sans-Serif" font-size="10.00">Probe 7 &#160;(p=0.5)</text>
<text xml:space="preserve" text-anchor="middle" x="380.75" y="-226.19" font-family="Helvetica,sans-Serif" font-size="10.00">E[cost]=3.50</text>
</g>
<!-- n4&#45;&gt;n9 -->
<g id="edge9" class="edge">
<title>n4&#45;&gt;n9</title>
<path fill="none" stroke="#c0392b" stroke-width="1.5" stroke-dasharray="5,2" d="M380.75,-325.88C380.75,-312.88 380.75,-297.32 380.75,-283.17"/>
<polygon fill="#c0392b" stroke="#c0392b" stroke-width="1.5" points="384.25,-283.47 380.75,-273.47 377.25,-283.47 384.25,-283.47"/>
<text xml:space="preserve" text-anchor="middle" x="412.25" y="-294.91" font-family="Helvetica,sans-Serif" font-size="9.00" fill="#c0392b">inactive (p=0.5)</text>
</g>
<!-- n6 -->
<g id="node7" class="node">
<title>n6</title>
<ellipse fill="#fff3cd" stroke="#cc9900" stroke-width="1.5" cx="127.75" cy="-126.77" rx="61.16" ry="29.52"/>
<text xml:space="preserve" text-anchor="middle" x="127.75" y="-134.15" font-family="Helvetica,sans-Serif" font-size="10.00">pos=4</text>
<text xml:space="preserve" text-anchor="middle" x="127.75" y="-122.9" font-family="Helvetica,sans-Serif" font-size="10.00">Probe 7 &#160;(p=0.5)</text>
<text xml:space="preserve" text-anchor="middle" x="127.75" y="-111.65" font-family="Helvetica,sans-Serif" font-size="10.00">E[cost]=2</text>
</g>
<!-- n5&#45;&gt;n6 -->
<g id="edge3" class="edge">
<title>n5&#45;&gt;n6</title>
<path fill="none" stroke="#27ae60" stroke-width="1.5" d="M197.95,-213.64C185.78,-198.76 170.45,-180 157.22,-163.82"/>
<polygon fill="#27ae60" stroke="#27ae60" stroke-width="1.5" points="160.19,-161.93 151.15,-156.4 154.77,-166.36 160.19,-161.93"/>
<text xml:space="preserve" text-anchor="middle" x="203.26" y="-185.24" font-family="Helvetica,sans-Serif" font-size="9.00" fill="#27ae60">active (p=1)</text>
<text xml:space="preserve" text-anchor="middle" x="203.26" y="-175.49" font-family="Helvetica,sans-Serif" font-size="9.00" fill="#27ae60">travel=1</text>
</g>
<!-- n7 -->
<g id="node8" class="node">
<title>n7</title>
<polygon fill="#ffe0e0" stroke="#cc4444" stroke-width="1.5" points="83.5,-41.75 0,-41.75 0,0 83.5,0 83.5,-41.75"/>
<text xml:space="preserve" text-anchor="middle" x="41.75" y="-28.25" font-family="Helvetica,sans-Serif" font-size="10.00">pos=7</text>
<text xml:space="preserve" text-anchor="middle" x="41.75" y="-17" font-family="Helvetica,sans-Serif" font-size="10.00">Return to depot</text>
<text xml:space="preserve" text-anchor="middle" x="41.75" y="-5.75" font-family="Helvetica,sans-Serif" font-size="10.00">cost=2</text>
</g>
<!-- n6&#45;&gt;n7 -->
<g id="edge1" class="edge">
<title>n6&#45;&gt;n7</title>
<path fill="none" stroke="#27ae60" stroke-width="1.5" d="M96.88,-100.59C89.7,-94.03 82.38,-86.69 76.25,-79.25 69.63,-71.21 63.42,-61.77 58.14,-52.9"/>
<polygon fill="#27ae60" stroke="#27ae60" stroke-width="1.5" points="61.32,-51.41 53.33,-44.46 55.24,-54.88 61.32,-51.41"/>
<text xml:space="preserve" text-anchor="middle" x="104" y="-70.7" font-family="Helvetica,sans-Serif" font-size="9.00" fill="#27ae60">active (p=0.5)</text>
<text xml:space="preserve" text-anchor="middle" x="104" y="-60.95" font-family="Helvetica,sans-Serif" font-size="9.00" fill="#27ae60">travel=1</text>
</g>
<!-- n8 -->
<g id="node9" class="node">
<title>n8</title>
<polygon fill="#ffe0e0" stroke="#cc4444" stroke-width="1.5" points="185.5,-41.75 102,-41.75 102,0 185.5,0 185.5,-41.75"/>
<text xml:space="preserve" text-anchor="middle" x="143.75" y="-28.25" font-family="Helvetica,sans-Serif" font-size="10.00">pos=4</text>
<text xml:space="preserve" text-anchor="middle" x="143.75" y="-17" font-family="Helvetica,sans-Serif" font-size="10.00">Return to depot</text>
<text xml:space="preserve" text-anchor="middle" x="143.75" y="-5.75" font-family="Helvetica,sans-Serif" font-size="10.00">cost=1</text>
</g>
<!-- n6&#45;&gt;n8 -->
<g id="edge2" class="edge">
<title>n6&#45;&gt;n8</title>
<path fill="none" stroke="#c0392b" stroke-width="1.5" stroke-dasharray="5,2" d="M132.21,-96.83C134.25,-83.59 136.67,-67.85 138.77,-54.22"/>
<polygon fill="#c0392b" stroke="#c0392b" stroke-width="1.5" points="142.18,-55.09 140.24,-44.68 135.26,-54.03 142.18,-55.09"/>
<text xml:space="preserve" text-anchor="middle" x="169.15" y="-65.83" font-family="Helvetica,sans-Serif" font-size="9.00" fill="#c0392b">inactive (p=0.5)</text>
</g>
<!-- n10 -->
<g id="node11" class="node">
<title>n10</title>
<ellipse fill="#d4e6f1" stroke="#2980b9" stroke-width="1.5" cx="261.75" cy="-126.77" rx="55.33" ry="29.52"/>
<text xml:space="preserve" text-anchor="middle" x="261.75" y="-134.15" font-family="Helvetica,sans-Serif" font-size="10.00">pos=7</text>
<text xml:space="preserve" text-anchor="middle" x="261.75" y="-122.9" font-family="Helvetica,sans-Serif" font-size="10.00">Probe 4 &#160;(p=1)</text>
<text xml:space="preserve" text-anchor="middle" x="261.75" y="-111.65" font-family="Helvetica,sans-Serif" font-size="10.00">E[cost]=3</text>
</g>
<!-- n9&#45;&gt;n10 -->
<g id="edge6" class="edge">
<title>n9&#45;&gt;n10</title>
<path fill="none" stroke="#27ae60" stroke-width="1.5" d="M349.71,-215.29C341.6,-208.49 332.97,-201 325.25,-193.79 314.73,-183.97 303.72,-172.84 293.87,-162.56"/>
<polygon fill="#27ae60" stroke="#27ae60" stroke-width="1.5" points="296.54,-160.29 287.12,-155.44 291.46,-165.11 296.54,-160.29"/>
<text xml:space="preserve" text-anchor="middle" x="353" y="-185.24" font-family="Helvetica,sans-Serif" font-size="9.00" fill="#27ae60">active (p=0.5)</text>
<text xml:space="preserve" text-anchor="middle" x="353" y="-175.49" font-family="Helvetica,sans-Serif" font-size="9.00" fill="#27ae60">travel=1</text>
</g>
<!-- n12 -->
<g id="node13" class="node">
<title>n12</title>
<ellipse fill="#d4e6f1" stroke="#2980b9" stroke-width="1.5" cx="390.75" cy="-126.77" rx="55.33" ry="29.52"/>
<text xml:space="preserve" text-anchor="middle" x="390.75" y="-134.15" font-family="Helvetica,sans-Serif" font-size="10.00">pos=5</text>
<text xml:space="preserve" text-anchor="middle" x="390.75" y="-122.9" font-family="Helvetica,sans-Serif" font-size="10.00">Probe 4 &#160;(p=1)</text>
<text xml:space="preserve" text-anchor="middle" x="390.75" y="-111.65" font-family="Helvetica,sans-Serif" font-size="10.00">E[cost]=3</text>
</g>
<!-- n9&#45;&gt;n12 -->
<g id="edge8" class="edge">
<title>n9&#45;&gt;n12</title>
<path fill="none" stroke="#c0392b" stroke-width="1.5" stroke-dasharray="5,2" d="M383.33,-211.33C384.48,-198.34 385.86,-182.78 387.12,-168.63"/>
<polygon fill="#c0392b" stroke="#c0392b" stroke-width="1.5" points="390.58,-169.19 387.98,-158.92 383.61,-168.57 390.58,-169.19"/>
<text xml:space="preserve" text-anchor="middle" x="417.85" y="-180.37" font-family="Helvetica,sans-Serif" font-size="9.00" fill="#c0392b">inactive (p=0.5)</text>
</g>
<!-- n11 -->
<g id="node12" class="node">
<title>n11</title>
<polygon fill="#ffe0e0" stroke="#cc4444" stroke-width="1.5" points="303.5,-41.75 220,-41.75 220,0 303.5,0 303.5,-41.75"/>
<text xml:space="preserve" text-anchor="middle" x="261.75" y="-28.25" font-family="Helvetica,sans-Serif" font-size="10.00">pos=4</text>
<text xml:space="preserve" text-anchor="middle" x="261.75" y="-17" font-family="Helvetica,sans-Serif" font-size="10.00">Return to depot</text>
<text xml:space="preserve" text-anchor="middle" x="261.75" y="-5.75" font-family="Helvetica,sans-Serif" font-size="10.00">cost=1</text>
</g>
<!-- n10&#45;&gt;n11 -->
<g id="edge5" class="edge">
<title>n10&#45;&gt;n11</title>
<path fill="none" stroke="#27ae60" stroke-width="1.5" d="M261.75,-96.55C261.75,-83.45 261.75,-67.95 261.75,-54.48"/>
<polygon fill="#27ae60" stroke="#27ae60" stroke-width="1.5" points="265.25,-54.59 261.75,-44.59 258.25,-54.59 265.25,-54.59"/>
<text xml:space="preserve" text-anchor="middle" x="285.75" y="-70.7" font-family="Helvetica,sans-Serif" font-size="9.00" fill="#27ae60">active (p=1)</text>
<text xml:space="preserve" text-anchor="middle" x="285.75" y="-60.95" font-family="Helvetica,sans-Serif" font-size="9.00" fill="#27ae60">travel=2</text>
</g>
<!-- n13 -->
<g id="node14" class="node">
<title>n13</title>
<polygon fill="#ffe0e0" stroke="#cc4444" stroke-width="1.5" points="432.5,-41.75 349,-41.75 349,0 432.5,0 432.5,-41.75"/>
<text xml:space="preserve" text-anchor="middle" x="390.75" y="-28.25" font-family="Helvetica,sans-Serif" font-size="10.00">pos=4</text>
<text xml:space="preserve" text-anchor="middle" x="390.75" y="-17" font-family="Helvetica,sans-Serif" font-size="10.00">Return to depot</text>
<text xml:space="preserve" text-anchor="middle" x="390.75" y="-5.75" font-family="Helvetica,sans-Serif" font-size="10.00">cost=1</text>
</g>
<!-- n12&#45;&gt;n13 -->
<g id="edge7" class="edge">
<title>n12&#45;&gt;n13</title>
<path fill="none" stroke="#27ae60" stroke-width="1.5" d="M390.75,-96.55C390.75,-83.45 390.75,-67.95 390.75,-54.48"/>
<polygon fill="#27ae60" stroke="#27ae60" stroke-width="1.5" points="394.25,-54.59 390.75,-44.59 387.25,-54.59 394.25,-54.59"/>
<text xml:space="preserve" text-anchor="middle" x="414.75" y="-70.7" font-family="Helvetica,sans-Serif" font-size="9.00" fill="#27ae60">active (p=1)</text>
<text xml:space="preserve" text-anchor="middle" x="414.75" y="-60.95" font-family="Helvetica,sans-Serif" font-size="9.00" fill="#27ae60">travel=2</text>
</g>
<!-- n15 -->
<g id="node16" class="node">
<title>n15</title>
<ellipse fill="#fff3cd" stroke="#cc9900" stroke-width="1.5" cx="534.75" cy="-470.4" rx="61.16" ry="29.52"/>
<text xml:space="preserve" text-anchor="middle" x="534.75" y="-477.78" font-family="Helvetica,sans-Serif" font-size="10.00">pos=5</text>
<text xml:space="preserve" text-anchor="middle" x="534.75" y="-466.53" font-family="Helvetica,sans-Serif" font-size="10.00">Probe 6 &#160;(p=0.5)</text>
<text xml:space="preserve" text-anchor="middle" x="534.75" y="-455.28" font-family="Helvetica,sans-Serif" font-size="10.00">E[cost]=4.50</text>
</g>
<!-- n14&#45;&gt;n15 -->
<g id="edge26" class="edge">
<title>n14&#45;&gt;n15</title>
<path fill="none" stroke="#27ae60" stroke-width="1.5" d="M533.27,-554.96C533.5,-541.97 533.77,-526.41 534.02,-512.26"/>
<polygon fill="#27ae60" stroke="#27ae60" stroke-width="1.5" points="537.52,-512.62 534.2,-502.56 530.52,-512.49 537.52,-512.62"/>
<text xml:space="preserve" text-anchor="middle" x="557.87" y="-528.87" font-family="Helvetica,sans-Serif" font-size="9.00" fill="#27ae60">active (p=1)</text>
<text xml:space="preserve" text-anchor="middle" x="557.87" y="-519.12" font-family="Helvetica,sans-Serif" font-size="9.00" fill="#27ae60">travel=1</text>
</g>
<!-- n16 -->
<g id="node17" class="node">
<title>n16</title>
<ellipse fill="#d4e6f1" stroke="#2980b9" stroke-width="1.5" cx="534.75" cy="-355.86" rx="55.33" ry="29.52"/>
<text xml:space="preserve" text-anchor="middle" x="534.75" y="-363.23" font-family="Helvetica,sans-Serif" font-size="10.00">pos=6</text>
<text xml:space="preserve" text-anchor="middle" x="534.75" y="-351.98" font-family="Helvetica,sans-Serif" font-size="10.00">Probe 4 &#160;(p=1)</text>
<text xml:space="preserve" text-anchor="middle" x="534.75" y="-340.73" font-family="Helvetica,sans-Serif" font-size="10.00">E[cost]=4</text>
</g>
<!-- n15&#45;&gt;n16 -->
<g id="edge18" class="edge">
<title>n15&#45;&gt;n16</title>
<path fill="none" stroke="#27ae60" stroke-width="1.5" d="M534.75,-440.42C534.75,-427.42 534.75,-411.86 534.75,-397.71"/>
<polygon fill="#27ae60" stroke="#27ae60" stroke-width="1.5" points="538.25,-398.01 534.75,-388.01 531.25,-398.01 538.25,-398.01"/>
<text xml:space="preserve" text-anchor="middle" x="562.5" y="-414.33" font-family="Helvetica,sans-Serif" font-size="9.00" fill="#27ae60">active (p=0.5)</text>
<text xml:space="preserve" text-anchor="middle" x="562.5" y="-404.58" font-family="Helvetica,sans-Serif" font-size="9.00" fill="#27ae60">travel=1</text>
</g>
<!-- n22 -->
<g id="node23" class="node">
<title>n22</title>
<ellipse fill="#fff3cd" stroke="#cc9900" stroke-width="1.5" cx="777.75" cy="-355.86" rx="61.16" ry="29.52"/>
<text xml:space="preserve" text-anchor="middle" x="777.75" y="-363.23" font-family="Helvetica,sans-Serif" font-size="10.00">pos=5</text>
<text xml:space="preserve" text-anchor="middle" x="777.75" y="-351.98" font-family="Helvetica,sans-Serif" font-size="10.00">Probe 7 &#160;(p=0.5)</text>
<text xml:space="preserve" text-anchor="middle" x="777.75" y="-340.73" font-family="Helvetica,sans-Serif" font-size="10.00">E[cost]=4</text>
</g>
<!-- n15&#45;&gt;n22 -->
<g id="edge25" class="edge">
<title>n15&#45;&gt;n22</title>
<path fill="none" stroke="#c0392b" stroke-width="1.5" stroke-dasharray="5,2" d="M578.47,-449.15C618.95,-430.41 679.29,-402.46 722.97,-382.23"/>
<polygon fill="#c0392b" stroke="#c0392b" stroke-width="1.5" points="724.3,-385.47 731.91,-378.09 721.36,-379.12 724.3,-385.47"/>
<text xml:space="preserve" text-anchor="middle" x="702.3" y="-409.46" font-family="Helvetica,sans-Serif" font-size="9.00" fill="#c0392b">inactive (p=0.5)</text>
</g>
<!-- n17 -->
<g id="node18" class="node">
<title>n17</title>
<ellipse fill="#fff3cd" stroke="#cc9900" stroke-width="1.5" cx="534.75" cy="-241.32" rx="61.16" ry="29.52"/>
<text xml:space="preserve" text-anchor="middle" x="534.75" y="-248.69" font-family="Helvetica,sans-Serif" font-size="10.00">pos=4</text>
<text xml:space="preserve" text-anchor="middle" x="534.75" y="-237.44" font-family="Helvetica,sans-Serif" font-size="10.00">Probe 7 &#160;(p=0.5)</text>
<text xml:space="preserve" text-anchor="middle" x="534.75" y="-226.19" font-family="Helvetica,sans-Serif" font-size="10.00">E[cost]=3</text>
</g>
<!-- n16&#45;&gt;n17 -->
<g id="edge17" class="edge">
<title>n16&#45;&gt;n17</title>
<path fill="none" stroke="#27ae60" stroke-width="1.5" d="M534.75,-325.88C534.75,-312.88 534.75,-297.32 534.75,-283.17"/>
<polygon fill="#27ae60" stroke="#27ae60" stroke-width="1.5" points="538.25,-283.47 534.75,-273.47 531.25,-283.47 538.25,-283.47"/>
<text xml:space="preserve" text-anchor="middle" x="558.75" y="-299.79" font-family="Helvetica,sans-Serif" font-size="9.00" fill="#27ae60">active (p=1)</text>
<text xml:space="preserve" text-anchor="middle" x="558.75" y="-290.04" font-family="Helvetica,sans-Serif" font-size="9.00" fill="#27ae60">travel=1</text>
</g>
<!-- n18 -->
<g id="node19" class="node">
<title>n18</title>
<ellipse fill="#d4e6f1" stroke="#2980b9" stroke-width="1.5" cx="519.75" cy="-126.77" rx="55.33" ry="29.52"/>
<text xml:space="preserve" text-anchor="middle" x="519.75" y="-134.15" font-family="Helvetica,sans-Serif" font-size="10.00">pos=7</text>
<text xml:space="preserve" text-anchor="middle" x="519.75" y="-122.9" font-family="Helvetica,sans-Serif" font-size="10.00">Probe 1 &#160;(p=1)</text>
<text xml:space="preserve" text-anchor="middle" x="519.75" y="-111.65" font-family="Helvetica,sans-Serif" font-size="10.00">E[cost]=2</text>
</g>
<!-- n17&#45;&gt;n18 -->
<g id="edge14" class="edge">
<title>n17&#45;&gt;n18</title>
<path fill="none" stroke="#27ae60" stroke-width="1.5" d="M530.89,-211.33C529.15,-198.34 527.08,-182.78 525.2,-168.63"/>
<polygon fill="#27ae60" stroke="#27ae60" stroke-width="1.5" points="528.69,-168.36 523.9,-158.91 521.75,-169.28 528.69,-168.36"/>
<text xml:space="preserve" text-anchor="middle" x="555.9" y="-185.24" font-family="Helvetica,sans-Serif" font-size="9.00" fill="#27ae60">active (p=0.5)</text>
<text xml:space="preserve" text-anchor="middle" x="555.9" y="-175.49" font-family="Helvetica,sans-Serif" font-size="9.00" fill="#27ae60">travel=1</text>
</g>
<!-- n20 -->
<g id="node21" class="node">
<title>n20</title>
<ellipse fill="#d4e6f1" stroke="#2980b9" stroke-width="1.5" cx="648.75" cy="-126.77" rx="55.33" ry="29.52"/>
<text xml:space="preserve" text-anchor="middle" x="648.75" y="-134.15" font-family="Helvetica,sans-Serif" font-size="10.00">pos=4</text>
<text xml:space="preserve" text-anchor="middle" x="648.75" y="-122.9" font-family="Helvetica,sans-Serif" font-size="10.00">Probe 1 &#160;(p=1)</text>
<text xml:space="preserve" text-anchor="middle" x="648.75" y="-111.65" font-family="Helvetica,sans-Serif" font-size="10.00">E[cost]=3</text>
</g>
<!-- n17&#45;&gt;n20 -->
<g id="edge16" class="edge">
<title>n17&#45;&gt;n20</title>
<path fill="none" stroke="#c0392b" stroke-width="1.5" stroke-dasharray="5,2" d="M564.68,-215.01C572.34,-208.27 580.47,-200.89 587.75,-193.79 597.67,-184.12 608.05,-173.21 617.38,-163.09"/>
<polygon fill="#c0392b" stroke="#c0392b" stroke-width="1.5" points="619.92,-165.5 624.07,-155.75 614.75,-160.78 619.92,-165.5"/>
<text xml:space="preserve" text-anchor="middle" x="638.3" y="-180.37" font-family="Helvetica,sans-Serif" font-size="9.00" fill="#c0392b">inactive (p=0.5)</text>
</g>
<!-- n19 -->
<g id="node20" class="node">
<title>n19</title>
<polygon fill="#ffe0e0" stroke="#cc4444" stroke-width="1.5" points="561.5,-41.75 478,-41.75 478,0 561.5,0 561.5,-41.75"/>
<text xml:space="preserve" text-anchor="middle" x="519.75" y="-28.25" font-family="Helvetica,sans-Serif" font-size="10.00">pos=1</text>
<text xml:space="preserve" text-anchor="middle" x="519.75" y="-17" font-family="Helvetica,sans-Serif" font-size="10.00">Return to depot</text>
<text xml:space="preserve" text-anchor="middle" x="519.75" y="-5.75" font-family="Helvetica,sans-Serif" font-size="10.00">cost=1</text>
</g>
<!-- n18&#45;&gt;n19 -->
<g id="edge13" class="edge">
<title>n18&#45;&gt;n19</title>
<path fill="none" stroke="#27ae60" stroke-width="1.5" d="M519.75,-96.55C519.75,-83.45 519.75,-67.95 519.75,-54.48"/>
<polygon fill="#27ae60" stroke="#27ae60" stroke-width="1.5" points="523.25,-54.59 519.75,-44.59 516.25,-54.59 523.25,-54.59"/>
<text xml:space="preserve" text-anchor="middle" x="543.75" y="-70.7" font-family="Helvetica,sans-Serif" font-size="9.00" fill="#27ae60">active (p=1)</text>
<text xml:space="preserve" text-anchor="middle" x="543.75" y="-60.95" font-family="Helvetica,sans-Serif" font-size="9.00" fill="#27ae60">travel=1</text>
</g>
<!-- n21 -->
<g id="node22" class="node">
<title>n21</title>
<polygon fill="#ffe0e0" stroke="#cc4444" stroke-width="1.5" points="690.5,-41.75 607,-41.75 607,0 690.5,0 690.5,-41.75"/>
<text xml:space="preserve" text-anchor="middle" x="648.75" y="-28.25" font-family="Helvetica,sans-Serif" font-size="10.00">pos=1</text>
<text xml:space="preserve" text-anchor="middle" x="648.75" y="-17" font-family="Helvetica,sans-Serif" font-size="10.00">Return to depot</text>
<text xml:space="preserve" text-anchor="middle" x="648.75" y="-5.75" font-family="Helvetica,sans-Serif" font-size="10.00">cost=1</text>
</g>
<!-- n20&#45;&gt;n21 -->
<g id="edge15" class="edge">
<title>n20&#45;&gt;n21</title>
<path fill="none" stroke="#27ae60" stroke-width="1.5" d="M648.75,-96.55C648.75,-83.45 648.75,-67.95 648.75,-54.48"/>
<polygon fill="#27ae60" stroke="#27ae60" stroke-width="1.5" points="652.25,-54.59 648.75,-44.59 645.25,-54.59 652.25,-54.59"/>
<text xml:space="preserve" text-anchor="middle" x="672.75" y="-70.7" font-family="Helvetica,sans-Serif" font-size="9.00" fill="#27ae60">active (p=1)</text>
<text xml:space="preserve" text-anchor="middle" x="672.75" y="-60.95" font-family="Helvetica,sans-Serif" font-size="9.00" fill="#27ae60">travel=2</text>
</g>
<!-- n23 -->
<g id="node24" class="node">
<title>n23</title>
<ellipse fill="#d4e6f1" stroke="#2980b9" stroke-width="1.5" cx="777.75" cy="-241.32" rx="55.33" ry="29.52"/>
<text xml:space="preserve" text-anchor="middle" x="777.75" y="-248.69" font-family="Helvetica,sans-Serif" font-size="10.00">pos=7</text>
<text xml:space="preserve" text-anchor="middle" x="777.75" y="-237.44" font-family="Helvetica,sans-Serif" font-size="10.00">Probe 1 &#160;(p=1)</text>
<text xml:space="preserve" text-anchor="middle" x="777.75" y="-226.19" font-family="Helvetica,sans-Serif" font-size="10.00">E[cost]=3</text>
</g>
<!-- n22&#45;&gt;n23 -->
<g id="edge21" class="edge">
<title>n22&#45;&gt;n23</title>
<path fill="none" stroke="#27ae60" stroke-width="1.5" d="M777.75,-325.88C777.75,-312.88 777.75,-297.32 777.75,-283.17"/>
<polygon fill="#27ae60" stroke="#27ae60" stroke-width="1.5" points="781.25,-283.47 777.75,-273.47 774.25,-283.47 781.25,-283.47"/>
<text xml:space="preserve" text-anchor="middle" x="805.5" y="-299.79" font-family="Helvetica,sans-Serif" font-size="9.00" fill="#27ae60">active (p=0.5)</text>
<text xml:space="preserve" text-anchor="middle" x="805.5" y="-290.04" font-family="Helvetica,sans-Serif" font-size="9.00" fill="#27ae60">travel=1</text>
</g>
<!-- n26 -->
<g id="node27" class="node">
<title>n26</title>
<ellipse fill="#d4e6f1" stroke="#2980b9" stroke-width="1.5" cx="906.75" cy="-241.32" rx="55.33" ry="29.52"/>
<text xml:space="preserve" text-anchor="middle" x="906.75" y="-248.69" font-family="Helvetica,sans-Serif" font-size="10.00">pos=5</text>
<text xml:space="preserve" text-anchor="middle" x="906.75" y="-237.44" font-family="Helvetica,sans-Serif" font-size="10.00">Probe 1 &#160;(p=1)</text>
<text xml:space="preserve" text-anchor="middle" x="906.75" y="-226.19" font-family="Helvetica,sans-Serif" font-size="10.00">E[cost]=4</text>
</g>
<!-- n22&#45;&gt;n26 -->
<g id="edge24" class="edge">
<title>n22&#45;&gt;n26</title>
<path fill="none" stroke="#c0392b" stroke-width="1.5" stroke-dasharray="5,2" d="M810.63,-330.35C819.58,-323.42 829.16,-315.74 837.75,-308.34 849.33,-298.36 861.51,-287 872.37,-276.56"/>
<polygon fill="#c0392b" stroke="#c0392b" stroke-width="1.5" points="874.77,-279.11 879.5,-269.63 869.89,-274.09 874.77,-279.11"/>
<text xml:space="preserve" text-anchor="middle" x="890.71" y="-294.91" font-family="Helvetica,sans-Serif" font-size="9.00" fill="#c0392b">inactive (p=0.5)</text>
</g>
<!-- n24 -->
<g id="node25" class="node">
<title>n24</title>
<ellipse fill="#d4e6f1" stroke="#2980b9" stroke-width="1.5" cx="777.75" cy="-126.77" rx="55.33" ry="29.52"/>
<text xml:space="preserve" text-anchor="middle" x="777.75" y="-134.15" font-family="Helvetica,sans-Serif" font-size="10.00">pos=1</text>
<text xml:space="preserve" text-anchor="middle" x="777.75" y="-122.9" font-family="Helvetica,sans-Serif" font-size="10.00">Probe 4 &#160;(p=1)</text>
<text xml:space="preserve" text-anchor="middle" x="777.75" y="-111.65" font-family="Helvetica,sans-Serif" font-size="10.00">E[cost]=2</text>
</g>
<!-- n23&#45;&gt;n24 -->
<g id="edge20" class="edge">
<title>n23&#45;&gt;n24</title>
<path fill="none" stroke="#27ae60" stroke-width="1.5" d="M777.75,-211.33C777.75,-198.34 777.75,-182.78 777.75,-168.63"/>
<polygon fill="#27ae60" stroke="#27ae60" stroke-width="1.5" points="781.25,-168.93 777.75,-158.93 774.25,-168.93 781.25,-168.93"/>
<text xml:space="preserve" text-anchor="middle" x="801.75" y="-185.24" font-family="Helvetica,sans-Serif" font-size="9.00" fill="#27ae60">active (p=1)</text>
<text xml:space="preserve" text-anchor="middle" x="801.75" y="-175.49" font-family="Helvetica,sans-Serif" font-size="9.00" fill="#27ae60">travel=1</text>
</g>
<!-- n25 -->
<g id="node26" class="node">
<title>n25</title>
<polygon fill="#ffe0e0" stroke="#cc4444" stroke-width="1.5" points="819.5,-41.75 736,-41.75 736,0 819.5,0 819.5,-41.75"/>
<text xml:space="preserve" text-anchor="middle" x="777.75" y="-28.25" font-family="Helvetica,sans-Serif" font-size="10.00">pos=4</text>
<text xml:space="preserve" text-anchor="middle" x="777.75" y="-17" font-family="Helvetica,sans-Serif" font-size="10.00">Return to depot</text>
<text xml:space="preserve" text-anchor="middle" x="777.75" y="-5.75" font-family="Helvetica,sans-Serif" font-size="10.00">cost=1</text>
</g>
<!-- n24&#45;&gt;n25 -->
<g id="edge19" class="edge">
<title>n24&#45;&gt;n25</title>
<path fill="none" stroke="#27ae60" stroke-width="1.5" d="M777.75,-96.55C777.75,-83.45 777.75,-67.95 777.75,-54.48"/>
<polygon fill="#27ae60" stroke="#27ae60" stroke-width="1.5" points="781.25,-54.59 777.75,-44.59 774.25,-54.59 781.25,-54.59"/>
<text xml:space="preserve" text-anchor="middle" x="801.75" y="-70.7" font-family="Helvetica,sans-Serif" font-size="9.00" fill="#27ae60">active (p=1)</text>
<text xml:space="preserve" text-anchor="middle" x="801.75" y="-60.95" font-family="Helvetica,sans-Serif" font-size="9.00" fill="#27ae60">travel=1</text>
</g>
<!-- n27 -->
<g id="node28" class="node">
<title>n27</title>
<ellipse fill="#d4e6f1" stroke="#2980b9" stroke-width="1.5" cx="906.75" cy="-126.77" rx="55.33" ry="29.52"/>
<text xml:space="preserve" text-anchor="middle" x="906.75" y="-134.15" font-family="Helvetica,sans-Serif" font-size="10.00">pos=1</text>
<text xml:space="preserve" text-anchor="middle" x="906.75" y="-122.9" font-family="Helvetica,sans-Serif" font-size="10.00">Probe 4 &#160;(p=1)</text>
<text xml:space="preserve" text-anchor="middle" x="906.75" y="-111.65" font-family="Helvetica,sans-Serif" font-size="10.00">E[cost]=2</text>
</g>
<!-- n26&#45;&gt;n27 -->
<g id="edge23" class="edge">
<title>n26&#45;&gt;n27</title>
<path fill="none" stroke="#27ae60" stroke-width="1.5" d="M906.75,-211.33C906.75,-198.34 906.75,-182.78 906.75,-168.63"/>
<polygon fill="#27ae60" stroke="#27ae60" stroke-width="1.5" points="910.25,-168.93 906.75,-158.93 903.25,-168.93 910.25,-168.93"/>
<text xml:space="preserve" text-anchor="middle" x="930.75" y="-185.24" font-family="Helvetica,sans-Serif" font-size="9.00" fill="#27ae60">active (p=1)</text>
<text xml:space="preserve" text-anchor="middle" x="930.75" y="-175.49" font-family="Helvetica,sans-Serif" font-size="9.00" fill="#27ae60">travel=2</text>
</g>
<!-- n28 -->
<g id="node29" class="node">
<title>n28</title>
<polygon fill="#ffe0e0" stroke="#cc4444" stroke-width="1.5" points="948.5,-41.75 865,-41.75 865,0 948.5,0 948.5,-41.75"/>
<text xml:space="preserve" text-anchor="middle" x="906.75" y="-28.25" font-family="Helvetica,sans-Serif" font-size="10.00">pos=4</text>
<text xml:space="preserve" text-anchor="middle" x="906.75" y="-17" font-family="Helvetica,sans-Serif" font-size="10.00">Return to depot</text>
<text xml:space="preserve" text-anchor="middle" x="906.75" y="-5.75" font-family="Helvetica,sans-Serif" font-size="10.00">cost=1</text>
</g>
<!-- n27&#45;&gt;n28 -->
<g id="edge22" class="edge">
<title>n27&#45;&gt;n28</title>
<path fill="none" stroke="#27ae60" stroke-width="1.5" d="M906.75,-96.55C906.75,-83.45 906.75,-67.95 906.75,-54.48"/>
<polygon fill="#27ae60" stroke="#27ae60" stroke-width="1.5" points="910.25,-54.59 906.75,-44.59 903.25,-54.59 910.25,-54.59"/>
<text xml:space="preserve" text-anchor="middle" x="930.75" y="-70.7" font-family="Helvetica,sans-Serif" font-size="9.00" fill="#27ae60">active (p=1)</text>
<text xml:space="preserve" text-anchor="middle" x="930.75" y="-60.95" font-family="Helvetica,sans-Serif" font-size="9.00" fill="#27ae60">travel=1</text>
</g>
</g>
</svg>
