<?xml version="1.0" encoding="UTF-8" standalone="no"?>
<!DOCTYPE svg PUBLIC "-//W3C//DTD SVG 1.1//EN"
 "http://www.w3.org/Graphics/SVG/1.1/DTD/svg11.dtd">
<!-- Generated by graphviz version 13.1.2 (20250808.2320)
 -->
<!-- Title: AdaptivePolicy Pages: 1 -->
<svg width="867pt" height="876pt"
 viewBox="0.00 0.00 867.00 876.00" xmlns="http://www.w3.org/2000/svg" xmlns:xlink="http://www.w3.org/1999/xlink">
<g id="graph0" class="graph" transform="scale(1 1) rotate(0) translate(4 872.05)">
<title>AdaptivePolicy</title>
<polygon fill="white" stroke="none" points="-4,4 -4,-872.05 863.38,-872.05 863.38,4 -4,4"/>
<text xml:space="preserve" text-anchor="middle" x="429.69" y="-848.85" font-family="Helvetica,sans-Serif" font-size="16.00">Adaptive Policy: asym&#45;manuel &#160;(E[cost]=7.1250)</text>
<!-- n0 -->
<g id="node1" class="node">
<title>n0</title>
<ellipse fill="#d4e6f1" stroke="#2980b9" stroke-width="1.5" cx="432.75" cy="-814.03" rx="55.33" ry="29.52"/>
<text xml:space="preserve" text-anchor="middle" x="432.75" y="-821.41" font-family="Helvetica,sans-Serif" font-size="10.00">pos=depot</text>
<text xml:space="preserve" text-anchor="middle" x="432.75" y="-810.16" font-family="Helvetica,sans-Serif" font-size="10.00">Probe 2 &#160;(p=1)</text>
<text xml:space="preserve" text-anchor="middle" x="432.75" y="-798.91" font-family="Helvetica,sans-Serif" font-size="10.00">E[cost]=7.12</text>
</g>
<!-- n1 -->
<g id="node2" class="node">
<title>n1</title>
<ellipse fill="#fff3cd" stroke="#cc9900" stroke-width="1.5" cx="432.75" cy="-699.49" rx="61.16" ry="29.52"/>
<text xml:space="preserve" text-anchor="middle" x="432.75" y="-706.86" font-family="Helvetica,sans-Serif" font-size="10.00">pos=2</text>
<text xml:space="preserve" text-anchor="middle" x="432.75" y="-695.61" font-family="Helvetica,sans-Serif" font-size="10.00">Probe 3 &#160;(p=0.5)</text>
<text xml:space="preserve" text-anchor="middle" x="432.75" y="-684.36" font-family="Helvetica,sans-Serif" font-size="10.00">E[cost]=6.12</text>
</g>
<!-- n0&#45;&gt;n1 -->
<g id="edge22" class="edge">
<title>n0&#45;&gt;n1</title>
<path fill="none" stroke="#27ae60" stroke-width="1.5" d="M432.75,-784.05C432.75,-771.05 432.75,-755.49 432.75,-741.35"/>
<polygon fill="#27ae60" stroke="#27ae60" stroke-width="1.5" points="436.25,-741.64 432.75,-731.64 429.25,-741.64 436.25,-741.64"/>
<text xml:space="preserve" text-anchor="middle" x="456.75" y="-757.96" font-family="Helvetica,sans-Serif" font-size="9.00" fill="#27ae60">active (p=1)</text>
<text xml:space="preserve" text-anchor="middle" x="456.75" y="-748.21" font-family="Helvetica,sans-Serif" font-size="9.00" fill="#27ae60">travel=1</text>
</g>
<!-- n2 -->
<g id="node3" class="node">
<title>n2</title>
<polygon fill="#e8f4e8" stroke="#44aa44" stroke-width="1.5" points="427.38,-607.32 304.12,-607.32 304.12,-562.57 427.38,-562.57 427.38,-607.32"/>
<text xml:space="preserve" text-anchor="middle" x="365.75" y="-593.82" font-family="Helvetica,sans-Serif" font-size="10.00">E[cost]=5.75</text>
<text xml:space="preserve" text-anchor="middle" x="365.75" y="-582.57" font-family="Helvetica,sans-Serif" font-size="10.00">Probe 1 (p=1) → travel 1</text>
<text xml:space="preserve" text-anchor="middle" x="365.75" y="-569.82" font-family="Helvetica,sans-Serif" font-size="10.00">Probe 5 (p=1) → travel 1</text>
</g>
<!-- n1&#45;&gt;n2 -->
<g id="edge10" class="edge">
<title>n1&#45;&gt;n2</title>
<path fill="none" stroke="#27ae60" stroke-width="1.5" d="M416.02,-670.38C406.6,-654.57 394.81,-634.77 385.02,-618.31"/>
<polygon fill="#27ae60" stroke="#27ae60" stroke-width="1.5" points="388.2,-616.81 380.08,-610.01 382.18,-620.39 388.2,-616.81"/>
<text xml:space="preserve" text-anchor="middle" x="431.01" y="-643.42" font-family="Helvetica,sans-Serif" font-size="9.00" fill="#27ae60">active (p=0.5)</text>
<text xml:space="preserve" text-anchor="middle" x="431.01" y="-633.67" font-family="Helvetica,sans-Serif" font-size="9.00" fill="#27ae60">travel=1</text>
</g>
<!-- n14 -->
<g id="node13" class="node">
<title>n14</title>
<ellipse fill="#d4e6f1" stroke="#2980b9" stroke-width="1.5" cx="501.75" cy="-584.95" rx="55.33" ry="29.52"/>
<text xml:space="preserve" text-anchor="middle" x="501.75" y="-592.32" font-family="Helvetica,sans-Serif" font-size="10.00">pos=2</text>
<text xml:space="preserve" text-anchor="middle" x="501.75" y="-581.07" font-family="Helvetica,sans-Serif" font-size="10.00">Probe 5 &#160;(p=1)</text>
<text xml:space="preserve" text-anchor="middle" x="501.75" y="-569.82" font-family="Helvetica,sans-Serif" font-size="10.00">E[cost]=5.50</text>
</g>
<!-- n1&#45;&gt;n14 -->
<g id="edge21" class="edge">
<title>n1&#45;&gt;n14</title>
<path fill="none" stroke="#c0392b" stroke-width="1.5" stroke-dasharray="5,2" d="M450.7,-671.05C454.71,-664.81 458.91,-658.18 462.75,-651.97 468.28,-643.01 474.11,-633.29 479.54,-624.13"/>
<polygon fill="#c0392b" stroke="#c0392b" stroke-width="1.5" points="482.46,-626.06 484.52,-615.67 476.43,-622.51 482.46,-626.06"/>
<text xml:space="preserve" text-anchor="middle" x="505.18" y="-638.54" font-family="Helvetica,sans-Serif" font-size="9.00" fill="#c0392b">inactive (p=0.5)</text>
</g>
<!-- n5 -->
<g id="node4" class="node">
<title>n5</title>
<ellipse fill="#d4e6f1" stroke="#2980b9" stroke-width="1.5" cx="204.75" cy="-470.4" rx="55.33" ry="29.52"/>
<text xml:space="preserve" text-anchor="middle" x="204.75" y="-477.78" font-family="Helvetica,sans-Serif" font-size="10.00">pos=6</text>
<text xml:space="preserve" text-anchor="middle" x="204.75" y="-466.53" font-family="Helvetica,sans-Serif" font-size="10.00">Probe 4 &#160;(p=1)</text>
<text xml:space="preserve" text-anchor="middle" x="204.75" y="-455.28" font-family="Helvetica,sans-Serif" font-size="10.00">E[cost]=3</text>
</g>
<!-- n2&#45;&gt;n5 -->
<g id="edge4" class="edge">
<title>n2&#45;&gt;n5</title>
<path fill="none" stroke="#27ae60" stroke-width="1.5" d="M334.33,-561.98C309.74,-544.79 275.27,-520.7 248.07,-501.68"/>
<polygon fill="#27ae60" stroke="#27ae60" stroke-width="1.5" points="250.1,-498.83 239.9,-495.97 246.09,-504.57 250.1,-498.83"/>
<text xml:space="preserve" text-anchor="middle" x="322.64" y="-528.87" font-family="Helvetica,sans-Serif" font-size="9.00" fill="#27ae60">active (p=0.5)</text>
<text xml:space="preserve" text-anchor="middle" x="322.64" y="-519.12" font-family="Helvetica,sans-Serif" font-size="9.00" fill="#27ae60">travel=1</text>
</g>
<!-- n9 -->
<g id="node8" class="node">
<title>n9</title>
<ellipse fill="#fff3cd" stroke="#cc9900" stroke-width="1.5" cx="365.75" cy="-470.4" rx="61.16" ry="29.52"/>
<text xml:space="preserve" text-anchor="middle" x="365.75" y="-477.78" font-family="Helvetica,sans-Serif" font-size="10.00">pos=5</text>
<text xml:space="preserve" text-anchor="middle" x="365.75" y="-466.53" font-family="Helvetica,sans-Serif" font-size="10.00">Probe 7 &#160;(p=0.5)</text>
<text xml:space="preserve" text-anchor="middle" x="365.75" y="-455.28" font-family="Helvetica,sans-Serif" font-size="10.00">E[cost]=3.50</text>
</g>
<!-- n2&#45;&gt;n9 -->
<g id="edge9" class="edge">
<title>n2&#45;&gt;n9</title>
<path fill="none" stroke="#c0392b" stroke-width="1.5" stroke-dasharray="5,2" d="M365.75,-561.98C365.75,-548.01 365.75,-529.48 365.75,-512.83"/>
<polygon fill="#c0392b" stroke="#c0392b" stroke-width="1.5" points="369.25,-512.83 365.75,-502.83 362.25,-512.83 369.25,-512.83"/>
<text xml:space="preserve" text-anchor="middle" x="397.25" y="-524" font-family="Helvetica,sans-Serif" font-size="9.00" fill="#c0392b">inactive (p=0.5)</text>
</g>
<!-- n6 -->
<g id="node5" class="node">
<title>n6</title>
<ellipse fill="#fff3cd" stroke="#cc9900" stroke-width="1.5" cx="127.75" cy="-355.86" rx="61.16" ry="29.52"/>
<text xml:space="preserve" text-anchor="middle" x="127.75" y="-363.23" font-family="Helvetica,sans-Serif" font-size="10.00">pos=4</text>
<text xml:space="preserve" text-anchor="middle" x="127.75" y="-351.98" font-family="Helvetica,sans-Serif" font-size="10.00">Probe 7 &#160;(p=0.5)</text>
<text xml:space="preserve" text-anchor="middle" x="127.75" y="-340.73" font-family="Helvetica,sans-Serif" font-size="10.00">E[cost]=2</text>
</g>
<!-- n5&#45;&gt;n6 -->
<g id="edge3" class="edge">
<title>n5&#45;&gt;n6</title>
<path fill="none" stroke="#27ae60" stroke-width="1.5" d="M186.11,-442.16C176.33,-427.86 164.18,-410.11 153.51,-394.51"/>
<polygon fill="#27ae60" stroke="#27ae60" stroke-width="1.5" points="156.57,-392.78 148.03,-386.51 150.79,-396.74 156.57,-392.78"/>
<text xml:space="preserve" text-anchor="middle" x="194.86" y="-414.33" font-family="Helvetica,sans-Serif" font-size="9.00" fill="#27ae60">active (p=1)</text>
<text xml:space="preserve" text-anchor="middle" x="194.86" y="-404.58" font-family="Helvetica,sans-Serif" font-size="9.00" fill="#27ae60">travel=1</text>
</g>
<!-- n7 -->
<g id="node6" class="node">
<title>n7</title>
<polygon fill="#ffe0e0" stroke="#cc4444" stroke-width="1.5" points="83.5,-262.19 0,-262.19 0,-220.44 83.5,-220.44 83.5,-262.19"/>
<text xml:space="preserve" text-anchor="middle" x="41.75" y="-248.69" font-family="Helvetica,sans-Serif" font-size="10.00">pos=7</text>
<text xml:space="preserve" text-anchor="middle" x="41.75" y="-237.44" font-family="Helvetica,sans-Serif" font-size="10.00">Return to depot</text>
<text xml:space="preserve" text-anchor="middle" x="41.75" y="-226.19" font-family="Helvetica,sans-Serif" font-size="10.00">cost=2</text>
</g>
<!-- n6&#45;&gt;n7 -->
<g id="edge1" class="edge">
<title>n6&#45;&gt;n7</title>
<path fill="none" stroke="#27ae60" stroke-width="1.5" d="M95.87,-330.06C88.57,-323.48 81.21,-316.05 75.25,-308.34 67.18,-297.88 60.19,-285.19 54.71,-273.73"/>
<polygon fill="#27ae60" stroke="#27ae60" stroke-width="1.5" points="58.02,-272.54 50.7,-264.88 51.64,-275.44 58.02,-272.54"/>
<text xml:space="preserve" text-anchor="middle" x="103" y="-299.79" font-family="Helvetica,sans-Serif" font-size="9.00" fill="#27ae60">active (p=0.5)</text>
<text xml:space="preserve" text-anchor="middle" x="103" y="-290.04" font-family="Helvetica,sans-Serif" font-size="9.00" fill="#27ae60">travel=1</text>
</g>
<!-- n8 -->
<g id="node7" class="node">
<title>n8</title>
<polygon fill="#ffe0e0" stroke="#cc4444" stroke-width="1.5" points="185.5,-262.19 102,-262.19 102,-220.44 185.5,-220.44 185.5,-262.19"/>
<text xml:space="preserve" text-anchor="middle" x="143.75" y="-248.69" font-family="Helvetica,sans-Serif" font-size="10.00">pos=4</text>
<text xml:space="preserve" text-anchor="middle" x="143.75" y="-237.44" font-family="Helvetica,sans-Serif" font-size="10.00">Return to depot</text>
<text xml:space="preserve" text-anchor="middle" x="143.75" y="-226.19" font-family="Helvetica,sans-Serif" font-size="10.00">cost=1</text>
</g>
<!-- n6&#45;&gt;n8 -->
<g id="edge2" class="edge">
<title>n6&#45;&gt;n8</title>
<path fill="none" stroke="#c0392b" stroke-width="1.5" stroke-dasharray="5,2" d="M131.87,-325.88C134.09,-310.25 136.84,-290.93 139.13,-274.8"/>
<polygon fill="#c0392b" stroke="#c0392b" stroke-width="1.5" points="142.59,-275.32 140.54,-264.93 135.66,-274.34 142.59,-275.32"/>
<text xml:space="preserve" text-anchor="middle" x="168.21" y="-294.91" font-family="Helvetica,sans-Serif" font-size="9.00" fill="#c0392b">inactive (p=0.5)</text>
</g>
<!-- n10 -->
<g id="node9" class="node">
<title>n10</title>
<ellipse fill="#d4e6f1" stroke="#2980b9" stroke-width="1.5" cx="261.75" cy="-355.86" rx="55.33" ry="29.52"/>
<text xml:space="preserve" text-anchor="middle" x="261.75" y="-363.23" font-family="Helvetica,sans-Serif" font-size="10.00">pos=7</text>
<text xml:space="preserve" text-anchor="middle" x="261.75" y="-351.98" font-family="Helvetica,sans-Serif" font-size="10.00">Probe 4 &#160;(p=1)</text>
<text xml:space="preserve" text-anchor="middle" x="261.75" y="-340.73" font-family="Helvetica,sans-Serif" font-size="10.00">E[cost]=3</text>
</g>
<!-- n9&#45;&gt;n10 -->
<g id="edge6" class="edge">
<title>n9&#45;&gt;n10</title>
<path fill="none" stroke="#27ae60" stroke-width="1.5" d="M337.8,-443.58C330.94,-436.97 323.71,-429.78 317.25,-422.88 308.41,-413.44 299.21,-402.85 290.91,-392.96"/>
<polygon fill="#27ae60" stroke="#27ae60" stroke-width="1.5" points="293.8,-390.96 284.72,-385.51 288.41,-395.44 293.8,-390.96"/>
<text xml:space="preserve" text-anchor="middle" x="345" y="-414.33" font-family="Helvetica,sans-Serif" font-size="9.00" fill="#27ae60">active (p=0.5)</text>
<text xml:space="preserve" text-anchor="middle" x="345" y="-404.58" font-family="Helvetica,sans-Serif" font-size="9.00" fill="#27ae60">travel=1</text>
</g>
<!-- n12 -->
<g id="node11" class="node">
<title>n12</title>
<ellipse fill="#d4e6f1" stroke="#2980b9" stroke-width="1.5" cx="390.75" cy="-355.86" rx="55.33" ry="29.52"/>
<text xml:space="preserve" text-anchor="middle" x="390.75" y="-363.23" font-family="Helvetica,sans-Serif" font-size="10.00">pos=5</text>
<text xml:space="preserve" text-anchor="middle" x="390.75" y="-351.98" font-family="Helvetica,sans-Serif" font-size="10.00">Probe 4 &#160;(p=1)</text>
<text xml:space="preserve" text-anchor="middle" x="390.75" y="-340.73" font-family="Helvetica,sans-Serif" font-size="10.00">E[cost]=3</text>
</g>
<!-- n9&#45;&gt;n12 -->
<g id="edge8" class="edge">
<title>n9&#45;&gt;n12</title>
<path fill="none" stroke="#c0392b" stroke-width="1.5" stroke-dasharray="5,2" d="M372.19,-440.42C375.08,-427.42 378.53,-411.86 381.67,-397.71"/>
<polygon fill="#c0392b" stroke="#c0392b" stroke-width="1.5" points="385.09,-398.48 383.84,-387.96 378.26,-396.96 385.09,-398.48"/>
<text xml:space="preserve" text-anchor="middle" x="411.25" y="-409.46" font-family="Helvetica,sans-Serif" font-size="9.00" fill="#c0392b">inactive (p=0.5)</text>
</g>
<!-- n11 -->
<g id="node10" class="node">
<title>n11</title>
<polygon fill="#ffe0e0" stroke="#cc4444" stroke-width="1.5" points="303.5,-262.19 220,-262.19 220,-220.44 303.5,-220.44 303.5,-262.19"/>
<text xml:space="preserve" text-anchor="middle" x="261.75" y="-248.69" font-family="Helvetica,sans-Serif" font-size="10.00">pos=4</text>
<text xml:space="preserve" text-anchor="middle" x="261.75" y="-237.44" font-family="Helvetica,sans-Serif" font-size="10.00">Return to depot</text>
<text xml:space="preserve" text-anchor="middle" x="261.75" y="-226.19" font-family="Helvetica,sans-Serif" font-size="10.00">cost=1</text>
</g>
<!-- n10&#45;&gt;n11 -->
<g id="edge5" class="edge">
<title>n10&#45;&gt;n11</title>
<path fill="none" stroke="#27ae60" stroke-width="1.5" d="M261.75,-325.88C261.75,-310.25 261.75,-290.93 261.75,-274.8"/>
<polygon fill="#27ae60" stroke="#27ae60" stroke-width="1.5" points="265.25,-274.95 261.75,-264.95 258.25,-274.95 265.25,-274.95"/>
<text xml:space="preserve" text-anchor="middle" x="285.75" y="-299.79" font-family="Helvetica,sans-Serif" font-size="9.00" fill="#27ae60">active (p=1)</text>
<text xml:space="preserve" text-anchor="middle" x="285.75" y="-290.04" font-family="Helvetica,sans-Serif" font-size="9.00" fill="#27ae60">travel=2</text>
</g>
<!-- n13 -->
<g id="node12" class="node">
<title>n13</title>
<polygon fill="#ffe0e0" stroke="#cc4444" stroke-width="1.5" points="432.5,-262.19 349,-262.19 349,-220.44 432.5,-220.44 432.5,-262.19"/>
<text xml:space="preserve" text-anchor="middle" x="390.75" y="-248.69" font-family="Helvetica,sans-Serif" font-size="10.00">pos=4</text>
<text xml:space="preserve" text-anchor="middle" x="390.75" y="-237.44" font-family="Helvetica,sans-Serif" font-size="10.00">Return to depot</text>
<text xml:space="preserve" text-anchor="middle" x="390.75" y="-226.19" font-family="Helvetica,sans-Serif" font-size="10.00">cost=1</text>
</g>
<!-- n12&#45;&gt;n13 -->
<g id="edge7" class="edge">
<title>n12&#45;&gt;n13</title>
<path fill="none" stroke="#27ae60" stroke-width="1.5" d="M390.75,-325.88C390.75,-310.25 390.75,-290.93 390.75,-274.8"/>
<polygon fill="#27ae60" stroke="#27ae60" stroke-width="1.5" points="394.25,-274.95 390.75,-264.95 387.25,-274.95 394.25,-274.95"/>
<text xml:space="preserve" text-anchor="middle" x="414.75" y="-299.79" font-family="Helvetica,sans-Serif" font-size="9.00" fill="#27ae60">active (p=1)</text>
<text xml:space="preserve" text-anchor="middle" x="414.75" y="-290.04" font-family="Helvetica,sans-Serif" font-size="9.00" fill="#27ae60">travel=2</text>
</g>
<!-- n15 -->
<g id="node14" class="node">
<title>n15</title>
<ellipse fill="#fff3cd" stroke="#cc9900" stroke-width="1.5" cx="519.75" cy="-470.4" rx="61.16" ry="29.52"/>
<text xml:space="preserve" text-anchor="middle" x="519.75" y="-477.78" font-family="Helvetica,sans-Serif" font-size="10.00">pos=5</text>
<text xml:space="preserve" text-anchor="middle" x="519.75" y="-466.53" font-family="Helvetica,sans-Serif" font-size="10.00">Probe 6 &#160;(p=0.5)</text>
<text xml:space="preserve" text-anchor="middle" x="519.75" y="-455.28" font-family="Helvetica,sans-Serif" font-size="10.00">E[cost]=4.50</text>
</g>
<!-- n14&#45;&gt;n15 -->
<g id="edge20" class="edge">
<title>n14&#45;&gt;n15</title>
<path fill="none" stroke="#27ae60" stroke-width="1.5" d="M506.39,-554.96C508.46,-541.97 510.95,-526.41 513.22,-512.26"/>
<polygon fill="#27ae60" stroke="#27ae60" stroke-width="1.5" points="516.65,-512.96 514.77,-502.53 509.74,-511.85 516.65,-512.96"/>
<text xml:space="preserve" text-anchor="middle" x="535.83" y="-528.87" font-family="Helvetica,sans-Serif" font-size="9.00" fill="#27ae60">active (p=1)</text>
<text xml:space="preserve" text-anchor="middle" x="535.83" y="-519.12" font-family="Helvetica,sans-Serif" font-size="9.00" fill="#27ae60">travel=1</text>
</g>
<!-- n16 -->
<g id="node15" class="node">
<title>n16</title>
<ellipse fill="#d4e6f1" stroke="#2980b9" stroke-width="1.5" cx="519.75" cy="-355.86" rx="55.33" ry="29.52"/>
<text xml:space="preserve" text-anchor="middle" x="519.75" y="-363.23" font-family="Helvetica,sans-Serif" font-size="10.00">pos=6</text>
<text xml:space="preserve" text-anchor="middle" x="519.75" y="-351.98" font-family="Helvetica,sans-Serif" font-size="10.00">Probe 4 &#160;(p=1)</text>
<text xml:space="preserve" text-anchor="middle" x="519.75" y="-340.73" font-family="Helvetica,sans-Serif" font-size="10.00">E[cost]=4</text>
</g>
<!-- n15&#45;&gt;n16 -->
<g id="edge16" class="edge">
<title>n15&#45;&gt;n16</title>
<path fill="none" stroke="#27ae60" stroke-width="1.5" d="M519.75,-440.42C519.75,-427.42 519.75,-411.86 519.75,-397.71"/>
<polygon fill="#27ae60" stroke="#27ae60" stroke-width="1.5" points="523.25,-398.01 519.75,-388.01 516.25,-398.01 523.25,-398.01"/>
<text xml:space="preserve" text-anchor="middle" x="547.5" y="-414.33" font-family="Helvetica,sans-Serif" font-size="9.00" fill="#27ae60">active (p=0.5)</text>
<text xml:space="preserve" text-anchor="middle" x="547.5" y="-404.58" font-family="Helvetica,sans-Serif" font-size="9.00" fill="#27ae60">travel=1</text>
</g>
<!-- n22 -->
<g id="node21" class="node">
<title>n22</title>
<ellipse fill="#fff3cd" stroke="#cc9900" stroke-width="1.5" cx="656.75" cy="-355.86" rx="61.16" ry="29.52"/>
<text xml:space="preserve" text-anchor="middle" x="656.75" y="-363.23" font-family="Helvetica,sans-Serif" font-size="10.00">pos=5</text>
<text xml:space="preserve" text-anchor="middle" x="656.75" y="-351.98" font-family="Helvetica,sans-Serif" font-size="10.00">Probe 7 &#160;(p=0.5)</text>
<text xml:space="preserve" text-anchor="middle" x="656.75" y="-340.73" font-family="Helvetica,sans-Serif" font-size="10.00">E[cost]=4</text>
</g>
<!-- n15&#45;&gt;n22 -->
<g id="edge19" class="edge">
<title>n15&#45;&gt;n22</title>
<path fill="none" stroke="#c0392b" stroke-width="1.5" stroke-dasharray="5,2" d="M552.05,-444.82C561.09,-437.82 570.86,-430.13 579.75,-422.88 592.58,-412.42 606.38,-400.73 618.69,-390.13"/>
<polygon fill="#c0392b" stroke="#c0392b" stroke-width="1.5" points="620.79,-392.95 626.07,-383.77 616.21,-387.65 620.79,-392.95"/>
<text xml:space="preserve" text-anchor="middle" x="632.67" y="-409.46" font-family="Helvetica,sans-Serif" font-size="9.00" fill="#c0392b">inactive (p=0.5)</text>
</g>
<!-- n17 -->
<g id="node16" class="node">
<title>n17</title>
<ellipse fill="#fff3cd" stroke="#cc9900" stroke-width="1.5" cx="515.75" cy="-241.32" rx="61.16" ry="29.52"/>
<text xml:space="preserve" text-anchor="middle" x="515.75" y="-248.69" font-family="Helvetica,sans-Serif" font-size="10.00">pos=4</text>
<text xml:space="preserve" text-anchor="middle" x="515.75" y="-237.44" font-family="Helvetica,sans-Serif" font-size="10.00">Probe 7 &#160;(p=0.5)</text>
<text xml:space="preserve" text-anchor="middle" x="515.75" y="-226.19" font-family="Helvetica,sans-Serif" font-size="10.00">E[cost]=3</text>
</g>
<!-- n16&#45;&gt;n17 -->
<g id="edge15" class="edge">
<title>n16&#45;&gt;n17</title>
<path fill="none" stroke="#27ae60" stroke-width="1.5" d="M518.72,-325.88C518.26,-312.88 517.71,-297.32 517.2,-283.17"/>
<polygon fill="#27ae60" stroke="#27ae60" stroke-width="1.5" points="520.71,-283.34 516.86,-273.47 513.71,-283.59 520.71,-283.34"/>
<text xml:space="preserve" text-anchor="middle" x="541.99" y="-299.79" font-family="Helvetica,sans-Serif" font-size="9.00" fill="#27ae60">active (p=1)</text>
<text xml:space="preserve" text-anchor="middle" x="541.99" y="-290.04" font-family="Helvetica,sans-Serif" font-size="9.00" fill="#27ae60">travel=1</text>
</g>
<!-- n18 -->
<g id="node17" class="node">
<title>n18</title>
<ellipse fill="#d4e6f1" stroke="#2980b9" stroke-width="1.5" cx="444.75" cy="-126.77" rx="55.33" ry="29.52"/>
<text xml:space="preserve" text-anchor="middle" x="444.75" y="-134.15" font-family="Helvetica,sans-Serif" font-size="10.00">pos=7</text>
<text xml:space="preserve" text-anchor="middle" x="444.75" y="-122.9" font-family="Helvetica,sans-Serif" font-size="10.00">Probe 1 &#160;(p=1)</text>
<text xml:space="preserve" text-anchor="middle" x="444.75" y="-111.65" font-family="Helvetica,sans-Serif" font-size="10.00">E[cost]=2</text>
</g>
<!-- n17&#45;&gt;n18 -->
<g id="edge12" class="edge">
<title>n17&#45;&gt;n18</title>
<path fill="none" stroke="#27ae60" stroke-width="1.5" d="M495.41,-213.1C490.95,-206.85 486.33,-200.16 482.25,-193.79 476.62,-185.02 470.9,-175.37 465.67,-166.22"/>
<polygon fill="#27ae60" stroke="#27ae60" stroke-width="1.5" points="468.86,-164.76 460.9,-157.77 462.76,-168.2 468.86,-164.76"/>
<text xml:space="preserve" text-anchor="middle" x="510" y="-185.24" font-family="Helvetica,sans-Serif" font-size="9.00" fill="#27ae60">active (p=0.5)</text>
<text xml:space="preserve" text-anchor="middle" x="510" y="-175.49" font-family="Helvetica,sans-Serif" font-size="9.00" fill="#27ae60">travel=1</text>
</g>
<!-- n20 -->
<g id="node19" class="node">
<title>n20</title>
<ellipse fill="#d4e6f1" stroke="#2980b9" stroke-width="1.5" cx="573.75" cy="-126.77" rx="55.33" ry="29.52"/>
<text xml:space="preserve" text-anchor="middle" x="573.75" y="-134.15" font-family="Helvetica,sans-Serif" font-size="10.00">pos=4</text>
<text xml:space="preserve" text-anchor="middle" x="573.75" y="-122.9" font-family="Helvetica,sans-Serif" font-size="10.00">Probe 1 &#160;(p=1)</text>
<text xml:space="preserve" text-anchor="middle" x="573.75" y="-111.65" font-family="Helvetica,sans-Serif" font-size="10.00">E[cost]=3</text>
</g>
<!-- n17&#45;&gt;n20 -->
<g id="edge14" class="edge">
<title>n17&#45;&gt;n20</title>
<path fill="none" stroke="#c0392b" stroke-width="1.5" stroke-dasharray="5,2" d="M530.39,-211.92C537.51,-198.08 546.19,-181.24 553.91,-166.27"/>
<polygon fill="#c0392b" stroke="#c0392b" stroke-width="1.5" points="556.81,-168.28 558.28,-157.79 550.59,-165.08 556.81,-168.28"/>
<text xml:space="preserve" text-anchor="middle" x="579.72" y="-180.37" font-family="Helvetica,sans-Serif" font-size="9.00" fill="#c0392b">inactive (p=0.5)</text>
</g>
<!-- n19 -->
<g id="node18" class="node">
<title>n19</title>
<polygon fill="#ffe0e0" stroke="#cc4444" stroke-width="1.5" points="486.5,-41.75 403,-41.75 403,0 486.5,0 486.5,-41.75"/>
<text xml:space="preserve" text-anchor="middle" x="444.75" y="-28.25" font-family="Helvetica,sans-Serif" font-size="10.00">pos=1</text>
<text xml:space="preserve" text-anchor="middle" x="444.75" y="-17" font-family="Helvetica,sans-Serif" font-size="10.00">Return to depot</text>
<text xml:space="preserve" text-anchor="middle" x="444.75" y="-5.75" font-family="Helvetica,sans-Serif" font-size="10.00">cost=1</text>
</g>
<!-- n18&#45;&gt;n19 -->
<g id="edge11" class="edge">
<title>n18&#45;&gt;n19</title>
<path fill="none" stroke="#27ae60" stroke-width="1.5" d="M444.75,-96.55C444.75,-83.45 444.75,-67.95 444.75,-54.48"/>
<polygon fill="#27ae60" stroke="#27ae60" stroke-width="1.5" points="448.25,-54.59 444.75,-44.59 441.25,-54.59 448.25,-54.59"/>
<text xml:space="preserve" text-anchor="middle" x="468.75" y="-70.7" font-family="Helvetica,sans-Serif" font-size="9.00" fill="#27ae60">active (p=1)</text>
<text xml:space="preserve" text-anchor="middle" x="468.75" y="-60.95" font-family="Helvetica,sans-Serif" font-size="9.00" fill="#27ae60">travel=1</text>
</g>
<!-- n21 -->
<g id="node20" class="node">
<title>n21</title>
<polygon fill="#ffe0e0" stroke="#cc4444" stroke-width="1.5" points="615.5,-41.75 532,-41.75 532,0 615.5,0 615.5,-41.75"/>
<text xml:space="preserve" text-anchor="middle" x="573.75" y="-28.25" font-family="Helvetica,sans-Serif" font-size="10.00">pos=1</text>
<text xml:space="preserve" text-anchor="middle" x="573.75" y="-17" font-family="Helvetica,sans-Serif" font-size="10.00">Return to depot</text>
<text xml:space="preserve" text-anchor="middle" x="573.75" y="-5.75" font-family="Helvetica,sans-Serif" font-size="10.00">cost=1</text>
</g>
<!-- n20&#45;&gt;n21 -->
<g id="edge13" class="edge">
<title>n20&#45;&gt;n21</title>
<path fill="none" stroke="#27ae60" stroke-width="1.5" d="M573.75,-96.55C573.75,-83.45 573.75,-67.95 573.75,-54.48"/>
<polygon fill="#27ae60" stroke="#27ae60" stroke-width="1.5" points="577.25,-54.59 573.75,-44.59 570.25,-54.59 577.25,-54.59"/>
<text xml:space="preserve" text-anchor="middle" x="597.75" y="-70.7" font-family="Helvetica,sans-Serif" font-size="9.00" fill="#27ae60">active (p=1)</text>
<text xml:space="preserve" text-anchor="middle" x="597.75" y="-60.95" font-family="Helvetica,sans-Serif" font-size="9.00" fill="#27ae60">travel=2</text>
</g>
<!-- n23 -->
<g id="node22" class="node">
<title>n23</title>
<polygon fill="#e0ffe0" stroke="#44aa44" stroke-width="1.5" points="718.38,-270.07 595.12,-270.07 595.12,-212.57 718.38,-212.57 718.38,-270.07"/>
<text xml:space="preserve" text-anchor="middle" x="656.75" y="-256.57" font-family="Helvetica,sans-Serif" font-size="10.00">E[cost]=3</text>
<text xml:space="preserve" text-anchor="middle" x="656.75" y="-245.32" font-family="Helvetica,sans-Serif" font-size="10.00">Probe 1 (p=1) → travel 1</text>
<text xml:space="preserve" text-anchor="middle" x="656.75" y="-232.57" font-family="Helvetica,sans-Serif" font-size="10.00">Probe 4 (p=1) → travel 1</text>
<text xml:space="preserve" text-anchor="middle" x="656.75" y="-219.82" font-family="Helvetica,sans-Serif" font-size="10.00">→ pos=4, return=1</text>
</g>
<!-- n22&#45;&gt;n23 -->
<g id="edge17" class="edge">
<title>n22&#45;&gt;n23</title>
<path fill="none" stroke="#27ae60" stroke-width="1.5" d="M656.75,-325.88C656.75,-312.78 656.75,-297.08 656.75,-282.84"/>
<polygon fill="#27ae60" stroke="#27ae60" stroke-width="1.5" points="660.25,-283.08 656.75,-273.08 653.25,-283.08 660.25,-283.08"/>
<text xml:space="preserve" text-anchor="middle" x="684.5" y="-299.79" font-family="Helvetica,sans-Serif" font-size="9.00" fill="#27ae60">active (p=0.5)</text>
<text xml:space="preserve" text-anchor="middle" x="684.5" y="-290.04" font-family="Helvetica,sans-Serif" font-size="9.00" fill="#27ae60">travel=1</text>
</g>
<!-- n26 -->
<g id="node23" class="node">
<title>n26</title>
<polygon fill="#e0ffe0" stroke="#44aa44" stroke-width="1.5" points="859.38,-270.07 736.12,-270.07 736.12,-212.57 859.38,-212.57 859.38,-270.07"/>
<text xml:space="preserve" text-anchor="middle" x="797.75" y="-256.57" font-family="Helvetica,sans-Serif" font-size="10.00">E[cost]=4</text>
<text xml:space="preserve" text-anchor="middle" x="797.75" y="-245.32" font-family="Helvetica,sans-Serif" font-size="10.00">Probe 1 (p=1) → travel 2</text>
<text xml:space="preserve" text-anchor="middle" x="797.75" y="-232.57" font-family="Helvetica,sans-Serif" font-size="10.00">Probe 4 (p=1) → travel 1</text>
<text xml:space="preserve" text-anchor="middle" x="797.75" y="-219.82" font-family="Helvetica,sans-Serif" font-size="10.00">→ pos=4, return=1</text>
</g>
<!-- n22&#45;&gt;n26 -->
<g id="edge18" class="edge">
<title>n22&#45;&gt;n26</title>
<path fill="none" stroke="#c0392b" stroke-width="1.5" stroke-dasharray="5,2" d="M688.94,-330.13C697.97,-323.13 707.77,-315.47 716.75,-308.34 728.85,-298.72 741.87,-288.18 753.86,-278.41"/>
<polygon fill="#c0392b" stroke="#c0392b" stroke-width="1.5" points="755.92,-281.25 761.45,-272.21 751.5,-275.82 755.92,-281.25"/>
<text xml:space="preserve" text-anchor="middle" x="770.63" y="-294.91" font-family="Helvetica,sans-Serif" font-size="9.00" fill="#c0392b">inactive (p=0.5)</text>
</g>
</g>
</svg>
